<mxfile host="app.diagrams.net" modified="2022-04-30T16:36:12.139Z" agent="5.0 (Windows NT 10.0; Win64; x64) AppleWebKit/537.36 (KHTML, like Gecko) Chrome/100.0.4896.127 Safari/537.36" etag="f6RvA1pwkKrOBfbWkhoV" version="17.4.5" type="github" pages="3">
  <diagram id="6a731a19-8d31-9384-78a2-239565b7b9f0" name="Page-1">
    <mxGraphModel dx="3651" dy="1403" grid="1" gridSize="10" guides="1" tooltips="1" connect="1" arrows="1" fold="1" page="1" pageScale="1" pageWidth="1169" pageHeight="827" background="none" math="0" shadow="0">
      <root>
        <mxCell id="0" />
        <mxCell id="1" parent="0" />
        <mxCell id="1aZu8xEIpY2yHkB9_vt9-59" style="edgeStyle=orthogonalEdgeStyle;rounded=0;orthogonalLoop=1;jettySize=auto;html=1;entryX=0.5;entryY=0;entryDx=0;entryDy=0;fontSize=12;" parent="1" source="1aZu8xEIpY2yHkB9_vt9-55" target="1aZu8xEIpY2yHkB9_vt9-56" edge="1">
          <mxGeometry relative="1" as="geometry" />
        </mxCell>
        <mxCell id="1aZu8xEIpY2yHkB9_vt9-55" value="程式開始" style="shape=mxgraph.flowchart.terminator;strokeWidth=1;gradientDirection=north;fontStyle=0;html=1;fillColor=default;strokeColor=default;fontSize=12;" parent="1" vertex="1">
          <mxGeometry x="485" y="370" width="120" height="40" as="geometry" />
        </mxCell>
        <mxCell id="1aZu8xEIpY2yHkB9_vt9-113" value="" style="edgeStyle=orthogonalEdgeStyle;rounded=0;orthogonalLoop=1;jettySize=auto;html=1;fontSize=12;" parent="1" source="1aZu8xEIpY2yHkB9_vt9-56" target="1aZu8xEIpY2yHkB9_vt9-112" edge="1">
          <mxGeometry relative="1" as="geometry" />
        </mxCell>
        <mxCell id="1aZu8xEIpY2yHkB9_vt9-56" value="定義腳位:&lt;br style=&quot;font-size: 12px;&quot;&gt;LCD,AM2321,rfid,rely&lt;br style=&quot;font-size: 12px;&quot;&gt;定義各項UUID&lt;br style=&quot;font-size: 12px;&quot;&gt;全域變數:各項特徵值,buffer" style="rounded=0;whiteSpace=wrap;html=1;align=center;spacingTop=-11;fontSize=12;" parent="1" vertex="1">
          <mxGeometry x="445" y="450" width="200" height="80" as="geometry" />
        </mxCell>
        <mxCell id="1aZu8xEIpY2yHkB9_vt9-68" value="" style="edgeStyle=orthogonalEdgeStyle;rounded=0;orthogonalLoop=1;jettySize=auto;html=1;fontSize=12;" parent="1" source="1aZu8xEIpY2yHkB9_vt9-58" target="1aZu8xEIpY2yHkB9_vt9-67" edge="1">
          <mxGeometry relative="1" as="geometry">
            <Array as="points">
              <mxPoint x="280" y="720" />
            </Array>
          </mxGeometry>
        </mxCell>
        <mxCell id="1aZu8xEIpY2yHkB9_vt9-74" value="" style="edgeStyle=orthogonalEdgeStyle;rounded=0;orthogonalLoop=1;jettySize=auto;html=1;entryX=0.5;entryY=0;entryDx=0;entryDy=0;fontSize=12;" parent="1" source="1aZu8xEIpY2yHkB9_vt9-58" target="1aZu8xEIpY2yHkB9_vt9-73" edge="1">
          <mxGeometry relative="1" as="geometry" />
        </mxCell>
        <mxCell id="1aZu8xEIpY2yHkB9_vt9-93" value="" style="edgeStyle=orthogonalEdgeStyle;rounded=0;orthogonalLoop=1;jettySize=auto;html=1;fontSize=12;" parent="1" source="1aZu8xEIpY2yHkB9_vt9-58" target="1aZu8xEIpY2yHkB9_vt9-92" edge="1">
          <mxGeometry relative="1" as="geometry" />
        </mxCell>
        <mxCell id="1aZu8xEIpY2yHkB9_vt9-156" style="edgeStyle=orthogonalEdgeStyle;rounded=0;orthogonalLoop=1;jettySize=auto;html=1;exitX=1;exitY=0.5;exitDx=0;exitDy=0;fontSize=12;" parent="1" source="1aZu8xEIpY2yHkB9_vt9-58" target="1aZu8xEIpY2yHkB9_vt9-157" edge="1">
          <mxGeometry relative="1" as="geometry">
            <mxPoint x="945" y="1010" as="targetPoint" />
          </mxGeometry>
        </mxCell>
        <mxCell id="1aZu8xEIpY2yHkB9_vt9-58" value="BLE start 開啟連線" style="rounded=0;whiteSpace=wrap;html=1;spacingTop=-7;fontSize=12;" parent="1" vertex="1">
          <mxGeometry x="445" y="680" width="200" height="80" as="geometry" />
        </mxCell>
        <mxCell id="1aZu8xEIpY2yHkB9_vt9-71" value="" style="edgeStyle=orthogonalEdgeStyle;rounded=0;orthogonalLoop=1;jettySize=auto;html=1;fontSize=12;" parent="1" source="1aZu8xEIpY2yHkB9_vt9-67" target="1aZu8xEIpY2yHkB9_vt9-70" edge="1">
          <mxGeometry relative="1" as="geometry" />
        </mxCell>
        <mxCell id="1aZu8xEIpY2yHkB9_vt9-67" value="rfid是否讀到卡" style="rhombus;whiteSpace=wrap;html=1;rounded=0;spacingTop=-7;fontSize=12;" parent="1" vertex="1">
          <mxGeometry x="210.03999999999996" y="820" width="140" height="60" as="geometry" />
        </mxCell>
        <mxCell id="1aZu8xEIpY2yHkB9_vt9-95" value="" style="edgeStyle=orthogonalEdgeStyle;rounded=0;orthogonalLoop=1;jettySize=auto;html=1;fontSize=12;" parent="1" source="1aZu8xEIpY2yHkB9_vt9-70" target="1aZu8xEIpY2yHkB9_vt9-94" edge="1">
          <mxGeometry relative="1" as="geometry" />
        </mxCell>
        <mxCell id="1aZu8xEIpY2yHkB9_vt9-70" value="將UID存入全域BUF" style="whiteSpace=wrap;html=1;rounded=0;spacingTop=-7;fontSize=12;" parent="1" vertex="1">
          <mxGeometry x="210.03999999999996" y="919" width="140" height="60" as="geometry" />
        </mxCell>
        <mxCell id="1aZu8xEIpY2yHkB9_vt9-82" value="" style="edgeStyle=orthogonalEdgeStyle;rounded=0;orthogonalLoop=1;jettySize=auto;html=1;fontSize=12;" parent="1" source="1aZu8xEIpY2yHkB9_vt9-73" target="1aZu8xEIpY2yHkB9_vt9-81" edge="1">
          <mxGeometry relative="1" as="geometry" />
        </mxCell>
        <mxCell id="1aZu8xEIpY2yHkB9_vt9-73" value="am2321獲取溫度和濕度" style="whiteSpace=wrap;html=1;rounded=0;spacingTop=-7;fontSize=12;" parent="1" vertex="1">
          <mxGeometry x="660" y="816" width="140" height="60" as="geometry" />
        </mxCell>
        <mxCell id="1aZu8xEIpY2yHkB9_vt9-81" value="將溫度和濕度存入全域buf" style="whiteSpace=wrap;html=1;rounded=0;spacingTop=-7;fontSize=12;" parent="1" vertex="1">
          <mxGeometry x="660" y="915" width="140" height="60" as="geometry" />
        </mxCell>
        <mxCell id="1aZu8xEIpY2yHkB9_vt9-100" value="" style="edgeStyle=orthogonalEdgeStyle;rounded=0;orthogonalLoop=1;jettySize=auto;html=1;fontSize=12;" parent="1" source="1aZu8xEIpY2yHkB9_vt9-92" target="1aZu8xEIpY2yHkB9_vt9-99" edge="1">
          <mxGeometry relative="1" as="geometry" />
        </mxCell>
        <mxCell id="1aZu8xEIpY2yHkB9_vt9-92" value="讀取風扇、燈泡、buzzer的值" style="whiteSpace=wrap;html=1;rounded=0;spacingTop=-7;fontSize=12;" parent="1" vertex="1">
          <mxGeometry x="475" y="826" width="140" height="60" as="geometry" />
        </mxCell>
        <mxCell id="1aZu8xEIpY2yHkB9_vt9-94" value="將UID顯示到LCD" style="whiteSpace=wrap;html=1;rounded=0;spacingTop=-7;fontSize=12;" parent="1" vertex="1">
          <mxGeometry x="210.03999999999996" y="1020" width="140" height="60" as="geometry" />
        </mxCell>
        <mxCell id="1aZu8xEIpY2yHkB9_vt9-102" value="" style="edgeStyle=orthogonalEdgeStyle;rounded=0;orthogonalLoop=1;jettySize=auto;html=1;fontSize=12;" parent="1" source="1aZu8xEIpY2yHkB9_vt9-99" target="1aZu8xEIpY2yHkB9_vt9-101" edge="1">
          <mxGeometry relative="1" as="geometry" />
        </mxCell>
        <mxCell id="1aZu8xEIpY2yHkB9_vt9-99" value="透過I2C向Sensor取得&lt;span style=&quot;font-size: 12px&quot;&gt;光感、CO、聲音峰值、窗、PIR的值&lt;/span&gt;" style="whiteSpace=wrap;html=1;rounded=0;spacingTop=-7;fontSize=12;" parent="1" vertex="1">
          <mxGeometry x="475" y="925" width="140" height="60" as="geometry" />
        </mxCell>
        <mxCell id="1aZu8xEIpY2yHkB9_vt9-104" value="" style="edgeStyle=orthogonalEdgeStyle;rounded=0;orthogonalLoop=1;jettySize=auto;html=1;fontSize=12;" parent="1" source="1aZu8xEIpY2yHkB9_vt9-101" target="1aZu8xEIpY2yHkB9_vt9-103" edge="1">
          <mxGeometry relative="1" as="geometry" />
        </mxCell>
        <mxCell id="1aZu8xEIpY2yHkB9_vt9-101" value="將所有值顯示在LCD" style="whiteSpace=wrap;html=1;rounded=0;spacingTop=-7;fontSize=12;" parent="1" vertex="1">
          <mxGeometry x="475" y="1026" width="140" height="60" as="geometry" />
        </mxCell>
        <mxCell id="1aZu8xEIpY2yHkB9_vt9-103" value="BLE notify()" style="shape=process;whiteSpace=wrap;html=1;backgroundOutline=1;rounded=0;spacingTop=-7;" parent="1" vertex="1">
          <mxGeometry x="475" y="1126" width="140" height="60" as="geometry" />
        </mxCell>
        <mxCell id="1aZu8xEIpY2yHkB9_vt9-114" value="" style="edgeStyle=orthogonalEdgeStyle;rounded=0;orthogonalLoop=1;jettySize=auto;html=1;fontSize=12;" parent="1" source="1aZu8xEIpY2yHkB9_vt9-112" target="1aZu8xEIpY2yHkB9_vt9-58" edge="1">
          <mxGeometry relative="1" as="geometry" />
        </mxCell>
        <mxCell id="1aZu8xEIpY2yHkB9_vt9-112" value="&#xa;&#xa;&lt;span style=&quot;color: rgb(0, 0, 0); font-family: helvetica; font-size: 12px; font-style: normal; font-weight: 400; letter-spacing: normal; text-align: center; text-indent: 0px; text-transform: none; word-spacing: 0px; background-color: rgb(248, 249, 250); display: inline; float: none;&quot;&gt;初始化:&lt;/span&gt;&lt;br style=&quot;color: rgb(0, 0, 0); font-family: helvetica; font-size: 12px; font-style: normal; font-weight: 400; letter-spacing: normal; text-align: center; text-indent: 0px; text-transform: none; word-spacing: 0px; background-color: rgb(248, 249, 250);&quot;&gt;&lt;span style=&quot;color: rgb(0, 0, 0); font-family: helvetica; font-size: 12px; font-style: normal; font-weight: 400; letter-spacing: normal; text-align: center; text-indent: 0px; text-transform: none; word-spacing: 0px; background-color: rgb(248, 249, 250); display: inline; float: none;&quot;&gt;腳位、串口參數、BLE、&lt;/span&gt;&lt;br style=&quot;color: rgb(0, 0, 0); font-family: helvetica; font-size: 12px; font-style: normal; font-weight: 400; letter-spacing: normal; text-align: center; text-indent: 0px; text-transform: none; word-spacing: 0px; background-color: rgb(248, 249, 250);&quot;&gt;&lt;span style=&quot;color: rgb(0, 0, 0); font-family: helvetica; font-size: 12px; font-style: normal; font-weight: 400; letter-spacing: normal; text-align: center; text-indent: 0px; text-transform: none; word-spacing: 0px; background-color: rgb(248, 249, 250); display: inline; float: none;&quot;&gt;am2321、LCD&lt;/span&gt;&#xa;&#xa;" style="rounded=0;whiteSpace=wrap;html=1;align=center;spacingTop=-11;fontSize=12;" parent="1" vertex="1">
          <mxGeometry x="445" y="570" width="200" height="80" as="geometry" />
        </mxCell>
        <mxCell id="1aZu8xEIpY2yHkB9_vt9-157" value="BLE onwrite()" style="shape=process;whiteSpace=wrap;html=1;backgroundOutline=1;fontSize=12;" parent="1" vertex="1">
          <mxGeometry x="895" y="816" width="120" height="60" as="geometry" />
        </mxCell>
        <mxCell id="1aZu8xEIpY2yHkB9_vt9-159" value="" style="endArrow=none;html=1;rounded=0;fontSize=12;entryX=0.5;entryY=1;entryDx=0;entryDy=0;" parent="1" target="1aZu8xEIpY2yHkB9_vt9-94" edge="1">
          <mxGeometry width="50" height="50" relative="1" as="geometry">
            <mxPoint x="135" y="1110" as="sourcePoint" />
            <mxPoint x="275" y="1100" as="targetPoint" />
            <Array as="points">
              <mxPoint x="280" y="1110" />
            </Array>
          </mxGeometry>
        </mxCell>
        <mxCell id="1aZu8xEIpY2yHkB9_vt9-160" value="" style="endArrow=none;html=1;rounded=0;fontSize=12;" parent="1" edge="1">
          <mxGeometry width="50" height="50" relative="1" as="geometry">
            <mxPoint x="135" y="1110" as="sourcePoint" />
            <mxPoint x="280" y="790" as="targetPoint" />
            <Array as="points">
              <mxPoint x="135" y="790" />
            </Array>
          </mxGeometry>
        </mxCell>
        <mxCell id="1aZu8xEIpY2yHkB9_vt9-165" value="" style="endArrow=none;html=1;rounded=0;fontSize=12;" parent="1" edge="1">
          <mxGeometry width="50" height="50" relative="1" as="geometry">
            <mxPoint x="280" y="790" as="sourcePoint" />
            <mxPoint x="375" y="850" as="targetPoint" />
            <Array as="points">
              <mxPoint x="375" y="790" />
            </Array>
          </mxGeometry>
        </mxCell>
        <mxCell id="1aZu8xEIpY2yHkB9_vt9-166" value="" style="endArrow=none;html=1;rounded=0;fontSize=12;exitX=1;exitY=0.5;exitDx=0;exitDy=0;" parent="1" source="1aZu8xEIpY2yHkB9_vt9-67" edge="1">
          <mxGeometry width="50" height="50" relative="1" as="geometry">
            <mxPoint x="225" y="840" as="sourcePoint" />
            <mxPoint x="375" y="850" as="targetPoint" />
          </mxGeometry>
        </mxCell>
        <mxCell id="1aZu8xEIpY2yHkB9_vt9-174" value="" style="endArrow=none;html=1;rounded=0;fontSize=12;entryX=0.5;entryY=1;entryDx=0;entryDy=0;" parent="1" target="1aZu8xEIpY2yHkB9_vt9-103" edge="1">
          <mxGeometry width="50" height="50" relative="1" as="geometry">
            <mxPoint x="425" y="1230" as="sourcePoint" />
            <mxPoint x="555" y="1186" as="targetPoint" />
            <Array as="points">
              <mxPoint x="545" y="1230" />
            </Array>
          </mxGeometry>
        </mxCell>
        <mxCell id="1aZu8xEIpY2yHkB9_vt9-175" value="" style="endArrow=none;html=1;rounded=0;fontSize=12;" parent="1" edge="1">
          <mxGeometry width="50" height="50" relative="1" as="geometry">
            <mxPoint x="425" y="1230" as="sourcePoint" />
            <mxPoint x="545" y="790" as="targetPoint" />
            <Array as="points">
              <mxPoint x="425" y="790" />
            </Array>
          </mxGeometry>
        </mxCell>
        <mxCell id="1aZu8xEIpY2yHkB9_vt9-176" value="" style="endArrow=none;html=1;rounded=0;fontSize=12;entryX=0.5;entryY=1;entryDx=0;entryDy=0;" parent="1" target="1aZu8xEIpY2yHkB9_vt9-81" edge="1">
          <mxGeometry width="50" height="50" relative="1" as="geometry">
            <mxPoint x="730" y="790" as="sourcePoint" />
            <mxPoint x="830" y="1020" as="targetPoint" />
            <Array as="points">
              <mxPoint x="780" y="790" />
              <mxPoint x="830" y="790" />
              <mxPoint x="830" y="1020" />
              <mxPoint x="730" y="1020" />
            </Array>
          </mxGeometry>
        </mxCell>
        <mxCell id="1aZu8xEIpY2yHkB9_vt9-178" value="" style="endArrow=none;html=1;rounded=0;fontSize=12;exitX=0.5;exitY=1;exitDx=0;exitDy=0;" parent="1" source="1aZu8xEIpY2yHkB9_vt9-157" edge="1">
          <mxGeometry width="50" height="50" relative="1" as="geometry">
            <mxPoint x="875" y="890" as="sourcePoint" />
            <mxPoint x="955" y="790" as="targetPoint" />
            <Array as="points">
              <mxPoint x="955" y="910" />
              <mxPoint x="875" y="910" />
              <mxPoint x="875" y="790" />
            </Array>
          </mxGeometry>
        </mxCell>
      </root>
    </mxGraphModel>
  </diagram>
  <diagram id="qb2i9TLYl3RNMZNRpMdp" name="第2頁">
    <mxGraphModel dx="1729" dy="1094" grid="1" gridSize="10" guides="1" tooltips="1" connect="1" arrows="1" fold="1" page="1" pageScale="1" pageWidth="827" pageHeight="1169" math="0" shadow="0">
      <root>
        <mxCell id="0" />
        <mxCell id="1" parent="0" />
        <mxCell id="E2VFQ6JP00PWK-CEOUYg-1" value="BLE function()" style="swimlane;fontSize=12;strokeColor=default;strokeWidth=1;fillColor=default;" vertex="1" parent="1">
          <mxGeometry x="1060" y="200" width="410" height="530" as="geometry">
            <mxRectangle x="980" y="120" width="110" height="23" as="alternateBounds" />
          </mxGeometry>
        </mxCell>
        <mxCell id="E2VFQ6JP00PWK-CEOUYg-2" value="副程式開始" style="shape=mxgraph.flowchart.terminator;strokeWidth=1;gradientDirection=north;fontStyle=0;html=1;fillColor=default;strokeColor=default;fontSize=12;" vertex="1" parent="E2VFQ6JP00PWK-CEOUYg-1">
          <mxGeometry x="145" y="40" width="120" height="40" as="geometry" />
        </mxCell>
        <mxCell id="E2VFQ6JP00PWK-CEOUYg-3" value="將各個全域變數的值設定到特徵值裡" style="whiteSpace=wrap;html=1;strokeWidth=1;gradientDirection=north;fontStyle=0;" vertex="1" parent="E2VFQ6JP00PWK-CEOUYg-1">
          <mxGeometry x="145" y="220" width="120" height="60" as="geometry" />
        </mxCell>
        <mxCell id="E2VFQ6JP00PWK-CEOUYg-4" value="" style="edgeStyle=none;rounded=0;orthogonalLoop=1;jettySize=auto;html=1;fontSize=12;" edge="1" parent="E2VFQ6JP00PWK-CEOUYg-1" source="E2VFQ6JP00PWK-CEOUYg-5" target="E2VFQ6JP00PWK-CEOUYg-10">
          <mxGeometry relative="1" as="geometry" />
        </mxCell>
        <mxCell id="E2VFQ6JP00PWK-CEOUYg-5" value="將各特徵值notify到client" style="whiteSpace=wrap;html=1;strokeWidth=1;gradientDirection=north;fontStyle=0;" vertex="1" parent="E2VFQ6JP00PWK-CEOUYg-1">
          <mxGeometry x="145" y="310" width="120" height="60" as="geometry" />
        </mxCell>
        <mxCell id="E2VFQ6JP00PWK-CEOUYg-6" value="" style="edgeStyle=none;rounded=0;orthogonalLoop=1;jettySize=auto;html=1;fontSize=12;" edge="1" parent="E2VFQ6JP00PWK-CEOUYg-1" source="E2VFQ6JP00PWK-CEOUYg-3" target="E2VFQ6JP00PWK-CEOUYg-5">
          <mxGeometry relative="1" as="geometry" />
        </mxCell>
        <mxCell id="E2VFQ6JP00PWK-CEOUYg-7" value="if connected" style="rhombus;whiteSpace=wrap;html=1;strokeWidth=1;gradientDirection=north;fontStyle=0;" vertex="1" parent="E2VFQ6JP00PWK-CEOUYg-1">
          <mxGeometry x="145" y="110" width="120" height="80" as="geometry" />
        </mxCell>
        <mxCell id="E2VFQ6JP00PWK-CEOUYg-8" value="" style="edgeStyle=none;rounded=0;orthogonalLoop=1;jettySize=auto;html=1;fontSize=12;" edge="1" parent="E2VFQ6JP00PWK-CEOUYg-1" source="E2VFQ6JP00PWK-CEOUYg-2" target="E2VFQ6JP00PWK-CEOUYg-7">
          <mxGeometry relative="1" as="geometry" />
        </mxCell>
        <mxCell id="E2VFQ6JP00PWK-CEOUYg-9" value="" style="edgeStyle=none;rounded=0;orthogonalLoop=1;jettySize=auto;html=1;fontSize=12;entryX=0.5;entryY=0;entryDx=0;entryDy=0;" edge="1" parent="E2VFQ6JP00PWK-CEOUYg-1" source="E2VFQ6JP00PWK-CEOUYg-7" target="E2VFQ6JP00PWK-CEOUYg-3">
          <mxGeometry relative="1" as="geometry" />
        </mxCell>
        <mxCell id="E2VFQ6JP00PWK-CEOUYg-10" value="副程式結束" style="shape=mxgraph.flowchart.terminator;strokeWidth=1;gradientDirection=north;fontStyle=0;html=1;fillColor=default;strokeColor=default;fontSize=12;" vertex="1" parent="E2VFQ6JP00PWK-CEOUYg-1">
          <mxGeometry x="145" y="430" width="120" height="40" as="geometry" />
        </mxCell>
        <mxCell id="E2VFQ6JP00PWK-CEOUYg-11" value="" style="endArrow=none;html=1;rounded=0;fontSize=12;" edge="1" parent="E2VFQ6JP00PWK-CEOUYg-1">
          <mxGeometry width="50" height="50" relative="1" as="geometry">
            <mxPoint x="205" y="400" as="sourcePoint" />
            <mxPoint x="145" y="150" as="targetPoint" />
            <Array as="points">
              <mxPoint x="70" y="400" />
              <mxPoint x="70" y="150" />
            </Array>
          </mxGeometry>
        </mxCell>
      </root>
    </mxGraphModel>
  </diagram>
  <diagram id="G_xmYz05G-iCZ8TJmKKf" name="第3頁">
    <mxGraphModel dx="1541" dy="1368" grid="1" gridSize="10" guides="1" tooltips="1" connect="1" arrows="1" fold="1" page="1" pageScale="1" pageWidth="827" pageHeight="1169" math="0" shadow="0">
      <root>
        <mxCell id="0" />
        <mxCell id="1" parent="0" />
        <mxCell id="Y-IXp34lVNKdqI212yTj-1" value="BLE onwrite()" style="swimlane;fontSize=12;" vertex="1" parent="1">
          <mxGeometry x="1710" y="90" width="741" height="870" as="geometry" />
        </mxCell>
        <mxCell id="Y-IXp34lVNKdqI212yTj-2" value="副程式開始" style="shape=mxgraph.flowchart.terminator;strokeWidth=1;gradientDirection=north;fontStyle=0;html=1;fillColor=default;strokeColor=default;fontSize=12;" vertex="1" parent="Y-IXp34lVNKdqI212yTj-1">
          <mxGeometry x="115" y="39" width="120" height="40" as="geometry" />
        </mxCell>
        <mxCell id="Y-IXp34lVNKdqI212yTj-3" value="" style="edgeStyle=none;rounded=0;orthogonalLoop=1;jettySize=auto;html=1;fontSize=12;" edge="1" parent="Y-IXp34lVNKdqI212yTj-1" source="Y-IXp34lVNKdqI212yTj-5" target="Y-IXp34lVNKdqI212yTj-20">
          <mxGeometry relative="1" as="geometry" />
        </mxCell>
        <mxCell id="Y-IXp34lVNKdqI212yTj-4" value="" style="edgeStyle=none;rounded=0;orthogonalLoop=1;jettySize=auto;html=1;fontSize=12;exitX=0.5;exitY=1;exitDx=0;exitDy=0;entryX=0;entryY=0.5;entryDx=0;entryDy=0;" edge="1" parent="Y-IXp34lVNKdqI212yTj-1" source="Y-IXp34lVNKdqI212yTj-5" target="Y-IXp34lVNKdqI212yTj-21">
          <mxGeometry relative="1" as="geometry">
            <Array as="points">
              <mxPoint x="350" y="230" />
            </Array>
          </mxGeometry>
        </mxCell>
        <mxCell id="Y-IXp34lVNKdqI212yTj-5" value="if 風扇特徵值=1" style="rhombus;whiteSpace=wrap;html=1;strokeWidth=1;gradientDirection=north;fontStyle=0;" vertex="1" parent="Y-IXp34lVNKdqI212yTj-1">
          <mxGeometry x="290" y="110" width="120" height="80" as="geometry" />
        </mxCell>
        <mxCell id="Y-IXp34lVNKdqI212yTj-6" value="" style="edgeStyle=none;rounded=0;orthogonalLoop=1;jettySize=auto;html=1;fontSize=12;" edge="1" parent="Y-IXp34lVNKdqI212yTj-1" source="Y-IXp34lVNKdqI212yTj-8" target="Y-IXp34lVNKdqI212yTj-11">
          <mxGeometry relative="1" as="geometry" />
        </mxCell>
        <mxCell id="Y-IXp34lVNKdqI212yTj-7" value="" style="edgeStyle=none;rounded=0;orthogonalLoop=1;jettySize=auto;html=1;fontSize=12;" edge="1" parent="Y-IXp34lVNKdqI212yTj-1" source="Y-IXp34lVNKdqI212yTj-8" target="Y-IXp34lVNKdqI212yTj-5">
          <mxGeometry relative="1" as="geometry" />
        </mxCell>
        <mxCell id="Y-IXp34lVNKdqI212yTj-8" value="&lt;span&gt;if 風扇特徵值被寫入&lt;/span&gt;" style="rhombus;whiteSpace=wrap;html=1;strokeWidth=1;gradientDirection=north;fontStyle=0;" vertex="1" parent="Y-IXp34lVNKdqI212yTj-1">
          <mxGeometry x="110" y="110" width="130" height="80" as="geometry" />
        </mxCell>
        <mxCell id="Y-IXp34lVNKdqI212yTj-9" value="" style="edgeStyle=none;rounded=0;orthogonalLoop=1;jettySize=auto;html=1;fontSize=12;" edge="1" parent="Y-IXp34lVNKdqI212yTj-1" source="Y-IXp34lVNKdqI212yTj-2" target="Y-IXp34lVNKdqI212yTj-8">
          <mxGeometry relative="1" as="geometry" />
        </mxCell>
        <mxCell id="Y-IXp34lVNKdqI212yTj-10" style="edgeStyle=none;rounded=0;orthogonalLoop=1;jettySize=auto;html=1;entryX=0;entryY=0.5;entryDx=0;entryDy=0;fontSize=12;" edge="1" parent="Y-IXp34lVNKdqI212yTj-1" source="Y-IXp34lVNKdqI212yTj-11" target="Y-IXp34lVNKdqI212yTj-24">
          <mxGeometry relative="1" as="geometry" />
        </mxCell>
        <mxCell id="Y-IXp34lVNKdqI212yTj-11" value="&lt;span&gt;if 燈泡特徵值被寫入&lt;/span&gt;" style="rhombus;whiteSpace=wrap;html=1;strokeWidth=1;gradientDirection=north;fontStyle=0;" vertex="1" parent="Y-IXp34lVNKdqI212yTj-1">
          <mxGeometry x="110" y="330" width="130" height="80" as="geometry" />
        </mxCell>
        <mxCell id="Y-IXp34lVNKdqI212yTj-12" value="" style="edgeStyle=none;rounded=0;orthogonalLoop=1;jettySize=auto;html=1;fontSize=12;" edge="1" parent="Y-IXp34lVNKdqI212yTj-1" source="Y-IXp34lVNKdqI212yTj-14" target="Y-IXp34lVNKdqI212yTj-19">
          <mxGeometry relative="1" as="geometry" />
        </mxCell>
        <mxCell id="Y-IXp34lVNKdqI212yTj-13" style="edgeStyle=none;rounded=0;orthogonalLoop=1;jettySize=auto;html=1;entryX=0;entryY=0.5;entryDx=0;entryDy=0;fontSize=12;" edge="1" parent="Y-IXp34lVNKdqI212yTj-1" source="Y-IXp34lVNKdqI212yTj-14" target="Y-IXp34lVNKdqI212yTj-30">
          <mxGeometry relative="1" as="geometry" />
        </mxCell>
        <mxCell id="Y-IXp34lVNKdqI212yTj-14" value="&lt;span&gt;if buzzer特徵值被寫入&lt;/span&gt;" style="rhombus;whiteSpace=wrap;html=1;strokeWidth=1;gradientDirection=north;fontStyle=0;" vertex="1" parent="Y-IXp34lVNKdqI212yTj-1">
          <mxGeometry x="110" y="560" width="130" height="80" as="geometry" />
        </mxCell>
        <mxCell id="Y-IXp34lVNKdqI212yTj-15" value="" style="edgeStyle=none;rounded=0;orthogonalLoop=1;jettySize=auto;html=1;fontSize=12;" edge="1" parent="Y-IXp34lVNKdqI212yTj-1" source="Y-IXp34lVNKdqI212yTj-11" target="Y-IXp34lVNKdqI212yTj-14">
          <mxGeometry relative="1" as="geometry" />
        </mxCell>
        <mxCell id="Y-IXp34lVNKdqI212yTj-16" value="NO" style="text;html=1;align=center;verticalAlign=middle;resizable=0;points=[];autosize=1;strokeColor=none;fillColor=none;fontSize=12;" vertex="1" parent="Y-IXp34lVNKdqI212yTj-1">
          <mxGeometry x="115" y="189" width="30" height="20" as="geometry" />
        </mxCell>
        <mxCell id="Y-IXp34lVNKdqI212yTj-17" value="NO" style="text;html=1;align=center;verticalAlign=middle;resizable=0;points=[];autosize=1;strokeColor=none;fillColor=none;fontSize=12;" vertex="1" parent="Y-IXp34lVNKdqI212yTj-1">
          <mxGeometry x="115" y="420" width="30" height="20" as="geometry" />
        </mxCell>
        <mxCell id="Y-IXp34lVNKdqI212yTj-18" value="NO" style="text;html=1;align=center;verticalAlign=middle;resizable=0;points=[];autosize=1;strokeColor=none;fillColor=none;fontSize=12;" vertex="1" parent="Y-IXp34lVNKdqI212yTj-1">
          <mxGeometry x="115" y="640" width="30" height="20" as="geometry" />
        </mxCell>
        <mxCell id="Y-IXp34lVNKdqI212yTj-19" value="副程式結束" style="shape=mxgraph.flowchart.terminator;strokeWidth=1;gradientDirection=north;fontStyle=0;html=1;fillColor=default;strokeColor=default;fontSize=12;" vertex="1" parent="Y-IXp34lVNKdqI212yTj-1">
          <mxGeometry x="115" y="791" width="120" height="40" as="geometry" />
        </mxCell>
        <mxCell id="Y-IXp34lVNKdqI212yTj-20" value="開啟風扇" style="whiteSpace=wrap;html=1;strokeWidth=1;gradientDirection=north;fontStyle=0;" vertex="1" parent="Y-IXp34lVNKdqI212yTj-1">
          <mxGeometry x="490" y="120" width="120" height="60" as="geometry" />
        </mxCell>
        <mxCell id="Y-IXp34lVNKdqI212yTj-21" value="關掉風扇" style="whiteSpace=wrap;html=1;strokeWidth=1;gradientDirection=north;fontStyle=0;" vertex="1" parent="Y-IXp34lVNKdqI212yTj-1">
          <mxGeometry x="490" y="200" width="120" height="60" as="geometry" />
        </mxCell>
        <mxCell id="Y-IXp34lVNKdqI212yTj-22" value="" style="endArrow=none;html=1;rounded=0;fontSize=12;entryX=1;entryY=0.5;entryDx=0;entryDy=0;" edge="1" parent="Y-IXp34lVNKdqI212yTj-1" target="Y-IXp34lVNKdqI212yTj-20">
          <mxGeometry width="50" height="50" relative="1" as="geometry">
            <mxPoint x="175" y="280" as="sourcePoint" />
            <mxPoint x="610" y="121" as="targetPoint" />
            <Array as="points">
              <mxPoint x="661" y="280" />
              <mxPoint x="661" y="150" />
            </Array>
          </mxGeometry>
        </mxCell>
        <mxCell id="Y-IXp34lVNKdqI212yTj-23" value="" style="endArrow=none;html=1;rounded=0;fontSize=12;exitX=1;exitY=0.5;exitDx=0;exitDy=0;" edge="1" parent="Y-IXp34lVNKdqI212yTj-1" source="Y-IXp34lVNKdqI212yTj-21">
          <mxGeometry width="50" height="50" relative="1" as="geometry">
            <mxPoint x="611" y="230" as="sourcePoint" />
            <mxPoint x="661" y="230" as="targetPoint" />
            <Array as="points">
              <mxPoint x="652" y="230" />
            </Array>
          </mxGeometry>
        </mxCell>
        <mxCell id="Y-IXp34lVNKdqI212yTj-24" value="if 燈泡特徵值=1" style="rhombus;whiteSpace=wrap;html=1;strokeWidth=1;gradientDirection=north;fontStyle=0;" vertex="1" parent="Y-IXp34lVNKdqI212yTj-1">
          <mxGeometry x="290" y="330" width="120" height="80" as="geometry" />
        </mxCell>
        <mxCell id="Y-IXp34lVNKdqI212yTj-25" value="開啟燈泡" style="whiteSpace=wrap;html=1;strokeWidth=1;gradientDirection=north;fontStyle=0;" vertex="1" parent="Y-IXp34lVNKdqI212yTj-1">
          <mxGeometry x="490" y="340" width="120" height="60" as="geometry" />
        </mxCell>
        <mxCell id="Y-IXp34lVNKdqI212yTj-26" value="" style="edgeStyle=none;rounded=0;orthogonalLoop=1;jettySize=auto;html=1;fontSize=12;" edge="1" parent="Y-IXp34lVNKdqI212yTj-1" source="Y-IXp34lVNKdqI212yTj-24" target="Y-IXp34lVNKdqI212yTj-25">
          <mxGeometry relative="1" as="geometry" />
        </mxCell>
        <mxCell id="Y-IXp34lVNKdqI212yTj-27" value="關掉燈泡" style="whiteSpace=wrap;html=1;strokeWidth=1;gradientDirection=north;fontStyle=0;" vertex="1" parent="Y-IXp34lVNKdqI212yTj-1">
          <mxGeometry x="490" y="430" width="120" height="60" as="geometry" />
        </mxCell>
        <mxCell id="Y-IXp34lVNKdqI212yTj-28" value="" style="edgeStyle=none;rounded=0;orthogonalLoop=1;jettySize=auto;html=1;fontSize=12;exitX=0.5;exitY=1;exitDx=0;exitDy=0;entryX=0;entryY=0.5;entryDx=0;entryDy=0;" edge="1" parent="Y-IXp34lVNKdqI212yTj-1" source="Y-IXp34lVNKdqI212yTj-24" target="Y-IXp34lVNKdqI212yTj-27">
          <mxGeometry relative="1" as="geometry">
            <Array as="points">
              <mxPoint x="350" y="460" />
            </Array>
          </mxGeometry>
        </mxCell>
        <mxCell id="Y-IXp34lVNKdqI212yTj-29" value="" style="endArrow=none;html=1;rounded=0;fontSize=12;exitX=1;exitY=0.5;exitDx=0;exitDy=0;" edge="1" parent="Y-IXp34lVNKdqI212yTj-1" source="Y-IXp34lVNKdqI212yTj-27">
          <mxGeometry width="50" height="50" relative="1" as="geometry">
            <mxPoint x="611" y="460" as="sourcePoint" />
            <mxPoint x="661" y="460" as="targetPoint" />
            <Array as="points">
              <mxPoint x="642" y="460" />
            </Array>
          </mxGeometry>
        </mxCell>
        <mxCell id="Y-IXp34lVNKdqI212yTj-30" value="if buzzer特徵值=1" style="rhombus;whiteSpace=wrap;html=1;strokeWidth=1;gradientDirection=north;fontStyle=0;" vertex="1" parent="Y-IXp34lVNKdqI212yTj-1">
          <mxGeometry x="300" y="560" width="120" height="80" as="geometry" />
        </mxCell>
        <mxCell id="Y-IXp34lVNKdqI212yTj-31" value="開啟buzzer" style="whiteSpace=wrap;html=1;strokeWidth=1;gradientDirection=north;fontStyle=0;" vertex="1" parent="Y-IXp34lVNKdqI212yTj-1">
          <mxGeometry x="490" y="570" width="120" height="60" as="geometry" />
        </mxCell>
        <mxCell id="Y-IXp34lVNKdqI212yTj-32" value="" style="edgeStyle=none;rounded=0;orthogonalLoop=1;jettySize=auto;html=1;fontSize=12;" edge="1" parent="Y-IXp34lVNKdqI212yTj-1" source="Y-IXp34lVNKdqI212yTj-30" target="Y-IXp34lVNKdqI212yTj-31">
          <mxGeometry relative="1" as="geometry" />
        </mxCell>
        <mxCell id="Y-IXp34lVNKdqI212yTj-33" value="關掉buzzer" style="whiteSpace=wrap;html=1;strokeWidth=1;gradientDirection=north;fontStyle=0;" vertex="1" parent="Y-IXp34lVNKdqI212yTj-1">
          <mxGeometry x="490" y="660" width="120" height="60" as="geometry" />
        </mxCell>
        <mxCell id="Y-IXp34lVNKdqI212yTj-34" value="" style="edgeStyle=none;rounded=0;orthogonalLoop=1;jettySize=auto;html=1;fontSize=12;exitX=0.5;exitY=1;exitDx=0;exitDy=0;entryX=0;entryY=0.5;entryDx=0;entryDy=0;" edge="1" parent="Y-IXp34lVNKdqI212yTj-1" source="Y-IXp34lVNKdqI212yTj-30" target="Y-IXp34lVNKdqI212yTj-33">
          <mxGeometry relative="1" as="geometry">
            <Array as="points">
              <mxPoint x="360" y="690" />
            </Array>
          </mxGeometry>
        </mxCell>
        <mxCell id="Y-IXp34lVNKdqI212yTj-35" value="" style="endArrow=none;html=1;rounded=0;fontSize=12;exitX=1;exitY=0.5;exitDx=0;exitDy=0;" edge="1" parent="Y-IXp34lVNKdqI212yTj-1">
          <mxGeometry width="50" height="50" relative="1" as="geometry">
            <mxPoint x="610" y="690" as="sourcePoint" />
            <mxPoint x="661" y="690" as="targetPoint" />
            <Array as="points">
              <mxPoint x="642" y="690" />
            </Array>
          </mxGeometry>
        </mxCell>
        <mxCell id="Y-IXp34lVNKdqI212yTj-36" value="" style="endArrow=none;html=1;rounded=0;fontSize=12;exitX=1;exitY=0.5;exitDx=0;exitDy=0;" edge="1" parent="Y-IXp34lVNKdqI212yTj-1">
          <mxGeometry width="50" height="50" relative="1" as="geometry">
            <mxPoint x="610" y="600" as="sourcePoint" />
            <mxPoint x="175" y="740" as="targetPoint" />
            <Array as="points">
              <mxPoint x="661" y="600" />
              <mxPoint x="661" y="650" />
              <mxPoint x="661" y="700" />
              <mxPoint x="661" y="740" />
            </Array>
          </mxGeometry>
        </mxCell>
        <mxCell id="Y-IXp34lVNKdqI212yTj-37" value="" style="endArrow=none;html=1;rounded=0;fontSize=12;exitX=1;exitY=0.5;exitDx=0;exitDy=0;" edge="1" parent="1" source="Y-IXp34lVNKdqI212yTj-25">
          <mxGeometry width="50" height="50" relative="1" as="geometry">
            <mxPoint x="2321" y="460" as="sourcePoint" />
            <mxPoint x="1885" y="600" as="targetPoint" />
            <Array as="points">
              <mxPoint x="2371" y="460" />
              <mxPoint x="2371" y="510" />
              <mxPoint x="2371" y="560" />
              <mxPoint x="2371" y="600" />
            </Array>
          </mxGeometry>
        </mxCell>
        <mxCell id="Y-IXp34lVNKdqI212yTj-38" value="" style="endArrow=none;html=1;rounded=0;fontSize=12;" edge="1" parent="1">
          <mxGeometry width="50" height="50" relative="1" as="geometry">
            <mxPoint x="1891" y="600" as="sourcePoint" />
            <mxPoint x="1891" y="600" as="targetPoint" />
            <Array as="points">
              <mxPoint x="1891" y="600" />
            </Array>
          </mxGeometry>
        </mxCell>
      </root>
    </mxGraphModel>
  </diagram>
</mxfile>
